STARTFONT 2.1
FONT -Monotype-Century Schoolbook-Bold-I-Normal--25-180-100-100-P-138-iso8859-9
SIZE 18 100 100
FONTBOUNDINGBOX 32 31 -5 -6

STARTPROPERTIES 24
FOUNDRY "Monotype"
FAMILY_NAME "Century Schoolbook"
WEIGHT_NAME "Bold"
SLANT "I"
SETWIDTH_NAME "Normal"
ADD_STYLE_NAME ""
PIXEL_SIZE 25
POINT_SIZE 180
RESOLUTION_X 100
RESOLUTION_Y 100
SPACING "P"
AVERAGE_WIDTH 138
CHARSET_REGISTRY "iso8859"
CHARSET_ENCODING "9"
FACE_NAME "Century Schoolbook Bold Italic ISO Latin5"
_DEC_DEVICE_FONTNAMES "PS=centuryschoolbook-bit-lat5"
COPYRIGHT "Copyright (c) 1993 Monotype Typography Ltd."
CAP_HEIGHT 22
X_HEIGHT 14
WEIGHT 10
QUAD_WIDTH 15
DEFAULT_CHAR 160
FONT_DESCENT 6
FONT_ASCENT 25
ENDPROPERTIES

CHARS 191

STARTCHAR space
ENCODING 32
SWIDTH 287 0
DWIDTH 7 0
BBX 0 0 0 0
BITMAP
ENDCHAR

STARTCHAR exclam
ENCODING 33
SWIDTH 333 0
DWIDTH 8 0
BBX 8 19 1 0
BITMAP
06
0F
0F
0F
0E
0E
0C
1C
18
18
10
10
30
00
00
F0
F0
F0
70
ENDCHAR

STARTCHAR quotedbl
ENCODING 34
SWIDTH 400 0
DWIDTH 10 0
BBX 9 8 3 9
BITMAP
7380
F780
F780
E700
C600
C600
8400
8400
ENDCHAR

STARTCHAR numbersign
ENCODING 35
SWIDTH 606 0
DWIDTH 15 0
BBX 14 18 1 0
BITMAP
0618
0618
0618
0630
0E30
FFFC
FFFC
0C30
0C60
1860
1860
FFFC
FFFC
18C0
30C0
30C0
30C0
31C0
ENDCHAR

STARTCHAR dollar
ENCODING 36
SWIDTH 574 0
DWIDTH 14 0
BBX 13 22 1 -3
BITMAP
0040
0040
03F0
0698
0CB8
0CB8
0EB8
0F00
0F00
0780
03C0
03C0
02E0
62E0
F4E0
E4E0
C4C0
6980
3F00
1800
1000
1000
ENDCHAR

STARTCHAR percent
ENCODING 37
SWIDTH 889 0
DWIDTH 22 0
BBX 16 18 4 0
BITMAP
1C06
3604
6608
6618
E610
CE20
CC40
CCC0
D880
710E
031B
0233
0473
0877
1867
1066
206C
6038
ENDCHAR

STARTCHAR ampersand
ENCODING 38
SWIDTH 889 0
DWIDTH 22 0
BBX 20 18 2 0
BITMAP
007C00
01CE00
038600
038600
038E00
039C00
03F800
03C000
1FC7F0
39C3C0
71E180
F1E300
F0F200
F0F400
F87820
783C60
7FFFC0
1F0F00
ENDCHAR

STARTCHAR quoteright
ENCODING 39
SWIDTH 259 0
DWIDTH 6 0
BBX 6 9 2 10
BITMAP
10
78
7C
7C
1C
18
30
E0
80
ENDCHAR

STARTCHAR parenleft
ENCODING 40
SWIDTH 407 0
DWIDTH 10 0
BBX 10 24 2 -5
BITMAP
0040
0180
0300
0600
0E00
1C00
3C00
3800
7800
7000
F000
F000
F000
E000
E000
E000
E000
E000
6000
7000
7000
3000
1000
0800
ENDCHAR

STARTCHAR parenright
ENCODING 41
SWIDTH 407 0
DWIDTH 10 0
BBX 10 24 -2 -5
BITMAP
0400
0200
0300
0380
0180
0180
01C0
01C0
01C0
01C0
01C0
01C0
03C0
03C0
03C0
0780
0780
0700
0E00
1E00
1C00
3000
6000
C000
ENDCHAR

STARTCHAR asterisk
ENCODING 42
SWIDTH 500 0
DWIDTH 13 0
BBX 11 11 2 7
BITMAP
0E00
0E00
0E00
E6E0
F5E0
F9E0
0200
1B00
3B80
7BC0
3180
ENDCHAR

STARTCHAR plus
ENCODING 43
SWIDTH 606 0
DWIDTH 15 0
BBX 14 14 2 1
BITMAP
0300
0300
0300
0300
0300
0300
FFFC
FFFC
0300
0300
0300
0300
0300
0300
ENDCHAR

STARTCHAR comma
ENCODING 44
SWIDTH 287 0
DWIDTH 7 0
BBX 6 8 -1 -4
BITMAP
38
7C
7C
3C
18
18
70
C0
ENDCHAR

STARTCHAR minus
ENCODING 45
SWIDTH 606 0
DWIDTH 15 0
BBX 14 2 2 7
BITMAP
FFFC
FFFC
ENDCHAR

STARTCHAR period
ENCODING 46
SWIDTH 287 0
DWIDTH 7 0
BBX 4 4 1 0
BITMAP
E0
F0
F0
60
ENDCHAR

STARTCHAR slash
ENCODING 47
SWIDTH 278 0
DWIDTH 7 0
BBX 13 18 -2 0
BITMAP
0038
0030
0060
00E0
00C0
0180
0380
0300
0700
0600
0C00
1C00
1800
3800
3000
6000
E000
C000
ENDCHAR

STARTCHAR zero
ENCODING 48
SWIDTH 574 0
DWIDTH 14 0
BBX 13 18 2 0
BITMAP
03E0
0630
0E30
1C38
3C38
3838
7838
7878
7078
7070
F0F0
F0F0
E0E0
E1E0
E1C0
6180
6300
3E00
ENDCHAR

STARTCHAR one
ENCODING 49
SWIDTH 574 0
DWIDTH 14 0
BBX 10 17 2 0
BITMAP
00C0
0FC0
03C0
0380
0380
0380
0780
0700
0700
0700
0F00
0E00
0E00
0E00
1C00
1E00
FF80
ENDCHAR

STARTCHAR two
ENCODING 50
SWIDTH 574 0
DWIDTH 14 0
BBX 14 17 1 0
BITMAP
07F0
0C78
183C
183C
1E3C
1E3C
0E78
0070
00E0
0380
0700
0C00
1830
3020
7FE0
FFE0
FFC0
ENDCHAR

STARTCHAR three
ENCODING 51
SWIDTH 574 0
DWIDTH 14 0
BBX 13 17 1 0
BITMAP
03E0
0470
0E38
0E38
0E38
0038
0070
00E0
0F00
01C0
00E0
60E0
F0E0
F1E0
C1E0
67C0
3F00
ENDCHAR

STARTCHAR four
ENCODING 52
SWIDTH 574 0
DWIDTH 14 0
BBX 13 17 1 0
BITMAP
0008
0018
0038
0070
00F0
0170
03F0
06E0
0CE0
18E0
31C0
61C0
FFF0
03C0
0380
0380
1FE0
ENDCHAR

STARTCHAR five
ENCODING 53
SWIDTH 574 0
DWIDTH 14 0
BBX 13 18 2 0
BITMAP
0608
07F8
07F0
0FC0
0800
1800
1000
1F80
31C0
20E0
00E0
00E0
61E0
F1E0
F1C0
E3C0
4780
3E00
ENDCHAR

STARTCHAR six
ENCODING 54
SWIDTH 574 0
DWIDTH 14 0
BBX 13 17 2 0
BITMAP
01F0
0738
0E78
1C78
3C30
3800
7800
7FC0
79E0
F0E0
F0E0
F1E0
E1E0
E1E0
63C0
6780
3E00
ENDCHAR

STARTCHAR seven
ENCODING 55
SWIDTH 574 0
DWIDTH 14 0
BBX 12 17 4 0
BITMAP
3FF0
7FE0
7F40
60C0
C180
8300
0200
0600
0C00
1C00
1C00
3800
3800
7800
7800
7000
7000
ENDCHAR

STARTCHAR eight
ENCODING 56
SWIDTH 574 0
DWIDTH 14 0
BBX 13 18 2 0
BITMAP
03E0
0E30
0C18
1818
1C18
1C38
1E30
0FE0
0780
1FC0
73E0
61E0
C0E0
C0E0
C0E0
C0C0
6380
3F00
ENDCHAR

STARTCHAR nine
ENCODING 57
SWIDTH 574 0
DWIDTH 14 0
BBX 13 17 2 0
BITMAP
03E0
0E30
1E38
1C38
3C38
3C78
3878
3878
1CF0
0F70
00F0
00E0
61E0
F1C0
F380
E700
7C00
ENDCHAR

STARTCHAR colon
ENCODING 58
SWIDTH 287 0
DWIDTH 7 0
BBX 6 12 1 0
BITMAP
3C
3C
3C
1C
00
00
00
00
F0
F0
F0
70
ENDCHAR

STARTCHAR semicolon
ENCODING 59
SWIDTH 287 0
DWIDTH 7 0
BBX 8 16 -1 -4
BITMAP
07
0F
0F
07
00
00
00
00
38
7C
7C
3C
18
18
60
80
ENDCHAR

STARTCHAR less
ENCODING 60
SWIDTH 606 0
DWIDTH 15 0
BBX 14 13 2 2
BITMAP
000C
003C
01F8
07E0
1F00
FC00
E000
F800
3F00
0FC0
01F8
007C
001C
ENDCHAR

STARTCHAR equal
ENCODING 61
SWIDTH 606 0
DWIDTH 15 0
BBX 14 8 2 4
BITMAP
FFFC
FFFC
0000
0000
0000
0000
FFFC
FFFC
ENDCHAR

STARTCHAR greater
ENCODING 62
SWIDTH 606 0
DWIDTH 15 0
BBX 14 13 2 2
BITMAP
8000
F000
FC00
1F80
07E0
00F8
003C
00FC
03F0
1F80
7E00
F800
C000
ENDCHAR

STARTCHAR question
ENCODING 63
SWIDTH 481 0
DWIDTH 12 0
BBX 11 18 2 0
BITMAP
0F80
10C0
20E0
20E0
21E0
07C0
0FC0
3F00
7C00
7000
6200
6600
3C00
0000
7000
F000
F000
7000
ENDCHAR

STARTCHAR at
ENCODING 64
SWIDTH 747 0
DWIDTH 19 0
BBX 19 20 1 -2
BITMAP
01FC00
060200
080100
100080
200040
60EC40
419440
C31C40
871840
871840
8E3840
8E7880
8EB100
CFB320
463C40
400040
200080
180300
060C00
01F000
ENDCHAR

STARTCHAR A
ENCODING 65
SWIDTH 741 0
DWIDTH 19 0
BBX 19 18 -1 0
BITMAP
000600
000E00
001E00
001E00
003E00
002E00
004F00
00CF00
008F00
010F00
020F00
03FF00
040700
0C0780
080780
180780
380780
FE1FE0
ENDCHAR

STARTCHAR B
ENCODING 66
SWIDTH 759 0
DWIDTH 19 0
BBX 20 18 -1 0
BITMAP
0FFFC0
01E1E0
01E0F0
01C0F0
03C0F0
03C0F0
03C1E0
0785C0
07FE00
0783C0
0701E0
0F01E0
0F01E0
0E01E0
0E03E0
1E03C0
1E0F80
FFFE00
ENDCHAR

STARTCHAR C
ENCODING 67
SWIDTH 759 0
DWIDTH 19 0
BBX 17 18 2 0
BITMAP
01F800
078680
0E0380
1E0180
3C0180
780100
780100
780000
F00000
F00000
F00000
F00000
F00200
F00200
780600
780C00
3E3800
0FE000
ENDCHAR

STARTCHAR D
ENCODING 68
SWIDTH 833 0
DWIDTH 21 0
BBX 21 18 0 0
BITMAP
0FFF80
01E1E0
01E0F0
03C070
03C078
03C078
038078
078078
078078
0780F8
0F00F8
0F00F0
0F01F0
0F01E0
1E03C0
1E07C0
1E0F00
FFFC00
ENDCHAR

STARTCHAR E
ENCODING 69
SWIDTH 741 0
DWIDTH 19 0
BBX 19 18 0 0
BITMAP
0FFFE0
03C0E0
03C060
03C040
038040
078640
078400
071C00
07FC00
0F1800
0F1800
0E1800
1E18C0
1E0080
1E0180
1C0300
3E0F00
FFFF00
ENDCHAR

STARTCHAR F
ENCODING 70
SWIDTH 704 0
DWIDTH 18 0
BBX 19 18 0 0
BITMAP
0FFFE0
03E0E0
03C060
03C060
03C040
078240
078600
078C00
07FC00
0F1C00
0F0800
0F0800
0E0800
1E0000
1E0000
1C0000
3E0000
FFC000
ENDCHAR

STARTCHAR G
ENCODING 71
SWIDTH 815 0
DWIDTH 20 0
BBX 18 18 2 0
BITMAP
01FC00
0787C0
0F0180
1E0180
3C0180
7C0080
780000
F80000
F80000
F03FC0
F00780
F00F00
F00F00
F00F00
781E00
381A00
3C3600
0FC200
ENDCHAR

STARTCHAR H
ENCODING 72
SWIDTH 870 0
DWIDTH 22 0
BBX 24 18 0 0
BITMAP
0FF9FF
03C078
03C078
03C078
0380F0
0780F0
0780F0
0700E0
0FFFE0
0F01E0
0F01E0
0E01C0
1E03C0
1E03C0
1E03C0
1C0780
3C0780
FF9FF0
ENDCHAR

STARTCHAR I
ENCODING 73
SWIDTH 444 0
DWIDTH 11 0
BBX 13 18 0 0
BITMAP
0FF8
03C0
03C0
03C0
0380
0780
0780
0780
0700
0F00
0F00
0F00
0E00
1E00
1E00
1C00
3E00
FF80
ENDCHAR

STARTCHAR J
ENCODING 74
SWIDTH 667 0
DWIDTH 17 0
BBX 18 18 1 0
BITMAP
007FC0
000F00
001E00
001E00
001E00
001C00
003C00
003C00
003C00
007800
787800
FC7800
FC7000
D8F000
80F000
C1E000
63C000
3F8000
ENDCHAR

STARTCHAR K
ENCODING 75
SWIDTH 778 0
DWIDTH 19 0
BBX 21 18 0 0
BITMAP
0FF3F8
03C0E0
03C0C0
038100
078600
078C00
079800
0F3800
0F7800
0FBC00
0F3C00
1E1E00
1E1E00
1E0E00
3C0F00
3C0700
3C0780
FFBFE0
ENDCHAR

STARTCHAR L
ENCODING 76
SWIDTH 704 0
DWIDTH 18 0
BBX 17 18 0 0
BITMAP
0FFC00
01E000
03C000
03C000
03C000
038000
078000
078000
078000
070000
0F0000
0F0000
0F0080
1E0180
1E0300
1E0700
3E0F00
FFFE00
ENDCHAR

STARTCHAR M
ENCODING 77
SWIDTH 944 0
DWIDTH 24 0
BBX 27 18 -1 0
BITMAP
0FE00FE0
01E00F00
01E01F00
01703700
03702E00
02F06E00
02F05E00
06F0DE00
06719C00
04713C00
04733C00
0C763C00
0C743800
087C7800
18787800
18787000
3C70F800
FE63FE00
ENDCHAR

STARTCHAR N
ENCODING 78
SWIDTH 852 0
DWIDTH 21 0
BBX 23 18 0 0
BITMAP
0FC0FE
01E038
01E010
01F030
037020
027820
027820
063C60
063C40
041E40
041EC0
0C0FC0
0C0F80
080780
180780
180700
7F0300
FE0300
ENDCHAR

STARTCHAR O
ENCODING 79
SWIDTH 833 0
DWIDTH 21 0
BBX 19 18 2 0
BITMAP
00FE00
078780
0F03C0
1E01C0
3C01E0
3C01E0
7801E0
7801E0
F801E0
F003E0
F003C0
F003C0
F007C0
F00780
700F00
381E00
1C3C00
0FE000
ENDCHAR

STARTCHAR P
ENCODING 80
SWIDTH 741 0
DWIDTH 19 0
BBX 20 18 -1 0
BITMAP
0FFFC0
01E1E0
01E0F0
03C0F0
03C0F0
03C0F0
0381F0
0781E0
0787C0
07FF00
0F0000
0F0000
0F0000
0F0000
1E0000
1E0000
1E0000
FF8000
ENDCHAR

STARTCHAR Q
ENCODING 81
SWIDTH 833 0
DWIDTH 21 0
BBX 19 23 2 -5
BITMAP
00FE00
078780
0F03C0
1E01C0
3C01E0
7C01E0
7801E0
F801E0
F801E0
F003E0
F003C0
F3C3C0
F66780
7C3780
783F00
3C3E00
1C3800
0FF800
007800
007800
007900
003F00
001C00
ENDCHAR

STARTCHAR R
ENCODING 82
SWIDTH 796 0
DWIDTH 20 0
BBX 20 18 0 0
BITMAP
0FFFC0
01E1E0
01C0F0
03C0F0
03C0F0
03C0F0
0381E0
0783C0
07FE00
078E00
0F0700
0F0F00
0F0F00
0F0F00
1E0F20
1E0F20
1E07C0
FFC380
ENDCHAR

STARTCHAR S
ENCODING 83
SWIDTH 685 0
DWIDTH 17 0
BBX 16 18 1 0
BITMAP
03F0
070F
0C07
1C07
1C03
1E02
1F02
1FE0
0FF8
03FC
00FE
201E
600E
600E
600E
701C
DC38
07E0
ENDCHAR

STARTCHAR T
ENCODING 84
SWIDTH 722 0
DWIDTH 18 0
BBX 18 18 2 0
BITMAP
3FFFC0
38F1C0
30E180
61E080
41E080
41E180
81C100
03C000
03C000
03C000
078000
078000
078000
078000
0F0000
0F0000
0F0000
7FE000
ENDCHAR

STARTCHAR U
ENCODING 85
SWIDTH 833 0
DWIDTH 21 0
BBX 20 18 3 0
BITMAP
FFC7F0
1E01C0
1E0180
1C0180
3C0100
3C0100
3C0300
780300
780200
780200
700600
F00600
F00400
F00400
F00C00
781800
3C3000
1FC000
ENDCHAR

STARTCHAR V
ENCODING 86
SWIDTH 741 0
DWIDTH 19 0
BBX 18 18 3 0
BITMAP
FF0FC0
7C0780
380300
3C0600
3C0400
3C0C00
3C1800
3C1000
1C3000
1C6000
1E4000
1EC000
1F8000
1F0000
1F0000
0E0000
0C0000
0C0000
ENDCHAR

STARTCHAR W
ENCODING 87
SWIDTH 944 0
DWIDTH 24 0
BBX 25 18 2 0
BITMAP
FE7F8F80
3C1E0600
3C0E0600
3C1E0C00
3C3E0800
3C2E1800
1C6E1000
1C4E3000
1CCF2000
1C8F6000
1D8F4000
1D0FC000
1F078000
1E078000
1E070000
1C060000
0C060000
08040000
ENDCHAR

STARTCHAR X
ENCODING 88
SWIDTH 741 0
DWIDTH 19 0
BBX 21 18 0 0
BITMAP
1FF3F8
03C1E0
03C180
01C300
01E200
01E400
00FC00
00F800
007000
007800
00F800
01BC00
033C00
061C00
0C1E00
180E00
7C1F00
FE7FC0
ENDCHAR

STARTCHAR Y
ENCODING 89
SWIDTH 704 0
DWIDTH 18 0
BBX 17 18 3 0
BITMAP
FF1F80
3C0E00
3C0600
1C0C00
1E1800
1E1000
0F3000
0F6000
07C000
078000
078000
078000
070000
0F0000
0F0000
0F0000
1F0000
7FC000
ENDCHAR

STARTCHAR Z
ENCODING 90
SWIDTH 704 0
DWIDTH 18 0
BBX 19 18 0 0
BITMAP
03FFE0
0783C0
060780
060F80
0C1F00
083E00
007C00
007800
00F000
01F000
03E000
07C000
0F8180
0F0300
1E0300
3E0600
781E00
FFFE00
ENDCHAR

STARTCHAR bracketleft
ENCODING 91
SWIDTH 407 0
DWIDTH 10 0
BBX 12 22 0 -4
BITMAP
03F0
0380
0380
0780
0700
0700
0F00
0E00
0E00
0E00
1E00
1C00
1C00
1C00
3800
3800
3800
7800
7000
7000
7000
FC00
ENDCHAR

STARTCHAR backslash
ENCODING 92
SWIDTH 606 0
DWIDTH 15 0
BBX 12 18 2 0
BITMAP
E000
6000
7000
3000
3800
1800
0C00
0C00
0600
0700
0300
0380
0180
01C0
00C0
0060
0060
0030
ENDCHAR

STARTCHAR bracketright
ENCODING 93
SWIDTH 407 0
DWIDTH 10 0
BBX 12 22 -2 -4
BITMAP
03F0
00F0
00E0
00E0
00E0
01E0
01C0
01C0
03C0
0380
0380
0380
0780
0700
0700
0700
0F00
0E00
0E00
1E00
1C00
FC00
ENDCHAR

STARTCHAR asciicircum
ENCODING 94
SWIDTH 606 0
DWIDTH 15 0
BBX 11 9 3 9
BITMAP
0400
0600
0E00
1F00
1B80
3980
31C0
70C0
E0E0
ENDCHAR

STARTCHAR underscore
ENCODING 95
SWIDTH 500 0
DWIDTH 13 0
BBX 13 1 0 -3
BITMAP
FFF8
ENDCHAR

STARTCHAR quoteleft
ENCODING 96
SWIDTH 259 0
DWIDTH 6 0
BBX 6 8 2 11
BITMAP
04
1C
30
60
E0
F8
F8
78
ENDCHAR

STARTCHAR a
ENCODING 97
SWIDTH 667 0
DWIDTH 17 0
BBX 14 12 2 0
BITMAP
0F38
3CB8
78F0
70F0
F0F0
F0E0
E0E0
E0E4
E1E8
F3D8
7FF0
38C0
ENDCHAR

STARTCHAR b
ENCODING 98
SWIDTH 611 0
DWIDTH 15 0
BBX 13 18 1 0
BITMAP
3E00
1E00
1E00
1C00
1C00
3C00
39E0
3BF0
7C78
7878
7078
7078
E070
E0F0
E0E0
E1E0
7380
3F00
ENDCHAR

STARTCHAR c
ENCODING 99
SWIDTH 537 0
DWIDTH 13 0
BBX 12 12 1 0
BITMAP
07C0
1E20
3C70
78F0
7060
F000
F000
F000
F000
7060
78C0
3F00
ENDCHAR

STARTCHAR d
ENCODING 100
SWIDTH 667 0
DWIDTH 17 0
BBX 16 18 1 0
BITMAP
003F
000E
000E
000E
001E
001C
071C
1FFC
3C78
7838
7878
7070
F070
F072
F0F2
71E4
7EF8
1C70
ENDCHAR

STARTCHAR e
ENCODING 101
SWIDTH 519 0
DWIDTH 13 0
BBX 11 12 1 0
BITMAP
07C0
1CE0
38E0
78E0
71C0
F380
FE00
F000
F000
7040
7980
3F00
ENDCHAR

STARTCHAR f
ENCODING 102
SWIDTH 389 0
DWIDTH 10 0
BBX 14 22 -1 -4
BITMAP
0038
00DC
019C
0380
0380
0700
1FE0
0700
0F00
0E00
0E00
0E00
1E00
1C00
1C00
1C00
3C00
3800
3800
7800
7800
E000
ENDCHAR

STARTCHAR g
ENCODING 103
SWIDTH 611 0
DWIDTH 15 0
BBX 17 18 -1 -5
BITMAP
000300
01FF80
079C80
0F0E00
0E0E00
0E0E00
0E1E00
073C00
0FF800
300000
380000
3FF800
1FFC00
3CFC00
E01C00
E01800
F07800
3FC000
ENDCHAR

STARTCHAR h
ENCODING 104
SWIDTH 685 0
DWIDTH 17 0
BBX 15 18 1 0
BITMAP
3F00
0F00
0E00
0E00
0E00
1C00
1C70
1DF8
3B38
3C38
3C38
7870
7870
70F2
70E4
E0EC
E0F8
E070
ENDCHAR

STARTCHAR i
ENCODING 105
SWIDTH 389 0
DWIDTH 10 0
BBX 7 18 2 0
BITMAP
0C
1E
1E
0C
00
00
3C
FC
38
38
78
70
70
F2
E6
E4
F8
70
ENDCHAR

STARTCHAR j
ENCODING 106
SWIDTH 370 0
DWIDTH 9 0
BBX 12 23 -3 -5
BITMAP
0060
00F0
00F0
0060
0000
0000
00E0
03E0
00E0
00E0
01C0
01C0
01C0
01C0
03C0
0380
0380
0380
0780
0700
E600
EE00
7800
ENDCHAR

STARTCHAR k
ENCODING 107
SWIDTH 648 0
DWIDTH 16 0
BBX 14 18 1 0
BITMAP
1F00
0700
0F00
0E00
0E00
0E00
1E78
1CFC
1D1C
3E1C
3C18
3C70
3B80
78C0
70C4
70E8
F0F8
E0F0
ENDCHAR

STARTCHAR l
ENCODING 108
SWIDTH 389 0
DWIDTH 10 0
BBX 8 18 2 0
BITMAP
3F
0E
0E
1E
1C
1C
1C
38
38
38
78
70
70
F0
E6
E4
E8
F0
ENDCHAR

STARTCHAR m
ENCODING 109
SWIDTH 944 0
DWIDTH 24 0
BBX 22 12 1 0
BITMAP
3E70E0
7DFBF0
1F3E70
1E3C70
3C3870
3878E0
3870E0
7870E0
7071EC
70E1C8
70E1F0
F0E0E0
ENDCHAR

STARTCHAR n
ENCODING 110
SWIDTH 685 0
DWIDTH 17 0
BBX 15 12 1 0
BITMAP
7C70
FDF8
3F38
3C38
3C38
3870
7870
70F2
70E4
F0EC
E0F8
E070
ENDCHAR

STARTCHAR o
ENCODING 111
SWIDTH 574 0
DWIDTH 14 0
BBX 12 12 1 0
BITMAP
0F80
1CE0
7870
7070
F070
F070
E0F0
E0F0
E0E0
E1C0
7380
1F00
ENDCHAR

STARTCHAR p
ENCODING 112
SWIDTH 648 0
DWIDTH 16 0
BBX 17 17 -2 -5
BITMAP
0F9E00
0FBF00
03C780
038780
078780
070780
070700
0F0F00
0F0F00
0F1E00
0EFC00
1CF000
1C0000
1C0000
3C0000
3C0000
FF0000
ENDCHAR

STARTCHAR q
ENCODING 113
SWIDTH 630 0
DWIDTH 16 0
BBX 14 17 1 -5
BITMAP
07C4
1E6C
3C38
7838
7838
7078
F070
F070
F0F0
F1E0
7EE0
3DE0
01C0
01C0
01C0
03C0
0FF0
ENDCHAR

STARTCHAR r
ENCODING 114
SWIDTH 519 0
DWIDTH 13 0
BBX 12 12 1 0
BITMAP
7CE0
39B0
3A70
3C60
3800
3800
3800
7800
7000
7000
F000
E000
ENDCHAR

STARTCHAR s
ENCODING 115
SWIDTH 481 0
DWIDTH 12 0
BBX 11 12 1 0
BITMAP
0F80
38E0
70E0
70E0
7C00
7F80
1FC0
47C0
E1C0
C1C0
E380
7E00
ENDCHAR

STARTCHAR t
ENCODING 116
SWIDTH 407 0
DWIDTH 10 0
BBX 8 16 2 0
BITMAP
1E
1C
1C
1C
FF
38
38
78
70
70
70
F2
E2
E4
F8
70
ENDCHAR

STARTCHAR u
ENCODING 117
SWIDTH 685 0
DWIDTH 17 0
BBX 14 12 2 0
BITMAP
FC38
3878
3870
7870
70F0
70E0
F0E0
E1E4
E3C8
E6D8
FDF0
70E0
ENDCHAR

STARTCHAR v
ENCODING 118
SWIDTH 556 0
DWIDTH 14 0
BBX 12 12 2 0
BITMAP
F8E0
F870
7870
7030
7020
F020
F020
E040
E040
E080
F300
7E00
ENDCHAR

STARTCHAR w
ENCODING 119
SWIDTH 833 0
DWIDTH 21 0
BBX 18 12 2 0
BITMAP
FC3980
3C39C0
3870C0
3870C0
787080
70E080
70E080
F1E180
E16100
E2E200
FCF600
707800
ENDCHAR

STARTCHAR x
ENCODING 120
SWIDTH 574 0
DWIDTH 14 0
BBX 14 12 0 0
BITMAP
1E1C
3E3C
6F4C
2780
0780
0780
0380
03C0
65CC
EDC8
F9F0
70E0
ENDCHAR

STARTCHAR y
ENCODING 121
SWIDTH 519 0
DWIDTH 13 0
BBX 14 17 -1 -5
BITMAP
0E1C
1E1C
271C
2708
0788
0398
0390
03B0
03C0
01C0
01C0
0180
0100
C200
E400
F800
7000
ENDCHAR

STARTCHAR z
ENCODING 122
SWIDTH 519 0
DWIDTH 13 0
BBX 13 12 0 0
BITMAP
0F88
3FF8
6390
0060
01C0
0780
0E00
3800
6E10
7FE0
9FE0
8380
ENDCHAR

STARTCHAR braceleft
ENCODING 123
SWIDTH 407 0
DWIDTH 10 0
BBX 11 24 2 -5
BITMAP
0060
0180
0300
0700
0E00
0E00
0E00
0E00
0E00
1C00
1800
E000
6000
3000
3800
3800
7800
7000
7000
E000
E000
E000
6000
1800
ENDCHAR

STARTCHAR bar
ENCODING 124
SWIDTH 606 0
DWIDTH 15 0
BBX 2 23 7 -5
BITMAP
C0
C0
C0
C0
C0
C0
C0
C0
C0
C0
C0
C0
C0
C0
C0
C0
C0
C0
C0
C0
C0
C0
C0
ENDCHAR

STARTCHAR braceright
ENCODING 125
SWIDTH 407 0
DWIDTH 10 0
BBX 11 24 -2 -5
BITMAP
0200
01C0
00E0
00E0
00E0
01E0
01C0
03C0
0380
0380
0180
0060
00C0
0300
0700
0E00
0E00
0E00
0E00
0E00
1C00
1C00
3000
C000
ENDCHAR

STARTCHAR asciitilde
ENCODING 126
SWIDTH 606 0
DWIDTH 15 0
BBX 14 4 2 6
BITMAP
7C04
7F88
87F8
80F0
ENDCHAR

STARTCHAR space
ENCODING 160
SWIDTH 287 0
DWIDTH 9 0
BBX 0 0 0 0
BITMAP
ENDCHAR

STARTCHAR exclamdown
ENCODING 161
SWIDTH 333 0
DWIDTH 8 0
BBX 8 19 0 -5
BITMAP
0F
0F
0F
07
00
04
0C
08
08
18
18
38
38
70
70
F0
F0
F0
60
ENDCHAR

STARTCHAR cent
ENCODING 162
SWIDTH 574 0
DWIDTH 14 0
BBX 13 23 2 -5
BITMAP
0008
0010
0010
0020
0020
0060
07C0
1CE0
38E0
79E0
7160
F300
F200
F600
F400
7C60
78C0
3F00
1000
3000
2000
6000
4000
ENDCHAR

STARTCHAR sterling
ENCODING 163
SWIDTH 574 0
DWIDTH 14 0
BBX 15 17 0 0
BITMAP
01F8
038C
070E
0E1E
0E1E
0E08
0E00
0E00
7FE0
0E00
0600
0600
7600
DE18
8FF8
9FF0
73C0
ENDCHAR

STARTCHAR currency
ENCODING 164
SWIDTH 574 0
DWIDTH 14 0
BBX 13 13 2 2
BITMAP
2010
EFB8
7FF0
38E0
7070
6030
6030
6030
7070
38E0
FFF8
6FB0
2010
ENDCHAR

STARTCHAR yen
ENCODING 165
SWIDTH 574 0
DWIDTH 14 0
BBX 16 17 0 0
BITMAP
3FBF
1E0C
0E08
0E18
0F10
0730
0720
07E0
7FFE
7FFC
0380
0780
FFFC
FFFC
0700
0F00
3FC0
ENDCHAR

STARTCHAR brokenbar
ENCODING 166
SWIDTH 606 0
DWIDTH 15 0
BBX 2 23 7 -5
BITMAP
C0
C0
C0
C0
C0
C0
C0
C0
00
00
00
00
00
00
00
C0
C0
C0
C0
C0
C0
C0
C0
ENDCHAR

STARTCHAR section
ENCODING 167
SWIDTH 500 0
DWIDTH 13 0
BBX 13 23 0 -5
BITMAP
01F0
0738
0638
0E38
0E10
0F00
0780
0F80
33C0
31C0
71E0
70E0
38E0
3CC0
1CC0
1F00
0E00
0F00
4700
E700
E700
E600
7C00
ENDCHAR

STARTCHAR dieresis
ENCODING 168
SWIDTH 333 0
DWIDTH 8 0
BBX 8 3 3 14
BITMAP
E7
E7
E7
ENDCHAR

STARTCHAR copyright
ENCODING 169
SWIDTH 747 0
DWIDTH 19 0
BBX 17 17 2 0
BITMAP
07F000
1C1800
300600
61EB00
461900
CC0980
8C0880
9C0080
9C0080
9C0080
9C0080
CE1180
463100
61C300
300600
1C1C00
07F000
ENDCHAR

STARTCHAR ordfeminine
ENCODING 170
SWIDTH 412 0
DWIDTH 10 0
BBX 9 7 3 11
BITMAP
3B00
7700
E700
C600
C680
CF80
F700
ENDCHAR

STARTCHAR guillemotleft
ENCODING 171
SWIDTH 481 0
DWIDTH 12 0
BBX 12 10 0 2
BITMAP
0630
0C60
1CE0
39C0
FBC0
7380
7380
31C0
30C0
18C0
ENDCHAR

STARTCHAR logicalnot
ENCODING 172
SWIDTH 606 0
DWIDTH 15 0
BBX 14 8 1 4
BITMAP
FFFC
FFFC
000C
000C
000C
000C
000C
000C
ENDCHAR

STARTCHAR hyphen
ENCODING 173
SWIDTH 333 0
DWIDTH 8 0
BBX 8 2 0 5
BITMAP
FF
FF
ENDCHAR

STARTCHAR registered
ENCODING 174
SWIDTH 747 0
DWIDTH 19 0
BBX 17 17 2 0
BITMAP
07F000
1C1C00
300600
6FE300
463100
C63980
863880
867080
87E080
86E080
867080
463180
4FB900
200200
300600
0C1800
03F000
ENDCHAR

STARTCHAR macron
ENCODING 175
SWIDTH 333 0
DWIDTH 8 0
BBX 9 2 2 15
BITMAP
FF80
FF80
ENDCHAR

STARTCHAR degree
ENCODING 176
SWIDTH 400 0
DWIDTH 10 0
BBX 9 9 2 9
BITMAP
1C00
7F00
6380
C180
C180
C180
6300
7F00
1C00
ENDCHAR

STARTCHAR plusminus
ENCODING 177
SWIDTH 606 0
DWIDTH 15 0
BBX 14 18 2 0
BITMAP
0300
0300
0300
0300
0300
0300
FFFC
FFFC
0300
0300
0300
0300
0300
0300
0000
0000
FFFC
FFFC
ENDCHAR

STARTCHAR twosuperior
ENCODING 178
SWIDTH 344 0
DWIDTH 9 0
BBX 7 9 2 9
BITMAP
3C
66
76
76
0C
10
64
FC
FC
ENDCHAR

STARTCHAR threesuperior
ENCODING 179
SWIDTH 344 0
DWIDTH 9 0
BBX 7 9 2 8
BITMAP
1C
36
36
0C
38
4C
EC
CC
38
ENDCHAR

STARTCHAR acute
ENCODING 180
SWIDTH 333 0
DWIDTH 8 0
BBX 6 4 4 14
BITMAP
18
3C
78
E0
ENDCHAR

STARTCHAR mu
ENCODING 181
SWIDTH 685 0
DWIDTH 17 0
BBX 15 16 0 -5
BITMAP
071E
0F1C
0E1C
0E3C
0E38
1C38
1C78
1C70
3CB4
3F74
2E78
6000
6000
C000
C000
C000
ENDCHAR

STARTCHAR paragraph
ENCODING 182
SWIDTH 650 0
DWIDTH 16 0
BBX 15 22 2 -4
BITMAP
0FFE
3F10
7F10
FF10
FF10
FF10
FF10
FF10
7F10
7F10
1F10
0110
0110
0110
0110
0110
0110
0110
0110
0110
0110
0110
ENDCHAR

STARTCHAR periodcentered
ENCODING 183
SWIDTH 287 0
DWIDTH 7 0
BBX 4 4 3 8
BITMAP
60
F0
F0
60
ENDCHAR

STARTCHAR cedilla
ENCODING 184
SWIDTH 333 0
DWIDTH 8 0
BBX 6 5 -1 -5
BITMAP
18
3C
1C
3C
F0
ENDCHAR

STARTCHAR onesuperior
ENCODING 185
SWIDTH 344 0
DWIDTH 9 0
BBX 6 9 3 9
BITMAP
0C
78
18
38
30
30
30
70
F8
ENDCHAR

STARTCHAR ordmasculine
ENCODING 186
SWIDTH 356 0
DWIDTH 9 0
BBX 8 7 3 11
BITMAP
3C
73
E3
C3
C7
CE
78
ENDCHAR

STARTCHAR guillemotright
ENCODING 187
SWIDTH 481 0
DWIDTH 12 0
BBX 12 10 0 2
BITMAP
2180
30C0
38C0
38E0
1CE0
3CF0
39E0
71C0
6380
C700
ENDCHAR

STARTCHAR onequarter
ENCODING 188
SWIDTH 861 0
DWIDTH 22 0
BBX 16 18 4 0
BITMAP
0802
7804
180C
3808
3010
3020
7020
6040
F880
0183
0106
020E
0416
0426
084C
107E
300C
203E
ENDCHAR

STARTCHAR onehalf
ENCODING 189
SWIDTH 861 0
DWIDTH 22 0
BBX 17 18 3 0
BITMAP
0C0200
3C0600
180400
180800
181000
381000
302000
304000
F8C000
008F00
011980
021D80
021D80
040300
080400
081900
103F00
203F00
ENDCHAR

STARTCHAR threequarters
ENCODING 190
SWIDTH 861 0
DWIDTH 22 0
BBX 17 18 3 0
BITMAP
1C0000
360300
360200
060400
3C0800
0C0800
6C1000
EC2000
4C6000
384080
008180
010380
010700
020B00
041200
0C3F80
080600
100F00
ENDCHAR

STARTCHAR questiondown
ENCODING 191
SWIDTH 481 0
DWIDTH 12 0
BBX 11 18 0 -5
BITMAP
01E0
01E0
01E0
00C0
0000
0780
0CC0
08C0
01C0
07C0
1F80
7E00
7C00
F080
E080
E080
7100
3E00
ENDCHAR

STARTCHAR Agrave
ENCODING 192
SWIDTH 741 0
DWIDTH 19 0
BBX 19 24 -1 0
BITMAP
001C00
001E00
000E00
000300
000000
000000
000400
000E00
001E00
001E00
003E00
006E00
004E00
008E00
018F00
010F00
020F00
07FF00
040F00
080700
180700
180780
780780
FE3FE0
ENDCHAR

STARTCHAR Aacute
ENCODING 193
SWIDTH 741 0
DWIDTH 19 0
BBX 19 24 -1 0
BITMAP
000380
000780
000700
000C00
000000
000000
000400
000E00
001E00
001E00
003E00
006E00
004E00
008E00
018F00
010F00
020F00
07FF00
040F00
080700
180700
180780
780780
FE3FE0
ENDCHAR

STARTCHAR Acircumflex
ENCODING 194
SWIDTH 741 0
DWIDTH 19 0
BBX 19 24 -1 0
BITMAP
000F00
001F00
003980
006080
000000
000000
000400
000E00
001E00
001E00
003E00
006E00
004E00
008E00
018F00
010F00
020F00
07FF00
040F00
080700
180700
180780
780780
FE3FE0
ENDCHAR

STARTCHAR Atilde
ENCODING 195
SWIDTH 741 0
DWIDTH 19 0
BBX 19 24 -1 0
BITMAP
001C40
003F80
004780
000000
000000
000000
000400
000E00
001E00
001E00
003E00
006E00
004E00
008E00
018F00
010F00
020F00
07FF00
040F00
080700
180700
180780
780780
FE3FE0
ENDCHAR

STARTCHAR Adieresis
ENCODING 196
SWIDTH 741 0
DWIDTH 19 0
BBX 19 24 -1 0
BITMAP
0039C0
0039C0
0039C0
000000
000000
000000
000600
000E00
000E00
001E00
003E00
002F00
004F00
00CF00
008F00
010F00
020700
03FF00
040780
0C0780
080780
180780
380780
FE1FE0
ENDCHAR

STARTCHAR Aring
ENCODING 197
SWIDTH 741 0
DWIDTH 19 0
BBX 19 25 -1 0
BITMAP
000E00
001900
001100
001B00
000E00
000000
000000
000C00
000C00
001E00
003E00
003E00
006E00
00DE00
008E00
018E00
030F00
020F00
07FF00
0C0F00
080F00
180700
300700
780F80
FE3FE0
ENDCHAR

STARTCHAR AE
ENCODING 198
SWIDTH 889 0
DWIDTH 22 0
BBX 25 18 -3 0
BITMAP
003FFF80
000DC300
000DC100
001BC100
00138100
00378900
00679800
00471000
00C7F000
018FF000
030F3000
03FE3000
060E2300
0C1E0200
0C1E0600
101C0600
383C1E00
FCFFFC00
ENDCHAR

STARTCHAR Ccedilla
ENCODING 199
SWIDTH 759 0
DWIDTH 19 0
BBX 17 23 2 -5
BITMAP
01F800
078E80
0E0380
1C0380
3C0180
780100
780100
780000
F00000
F00000
F00000
F00000
F00200
F00200
780400
780C00
3E3800
0FE000
010000
078000
038000
078000
1E0000
ENDCHAR

STARTCHAR Egrave
ENCODING 200
SWIDTH 741 0
DWIDTH 19 0
BBX 19 25 0 0
BITMAP
001000
003800
003C00
000E00
000200
000000
000000
0FFFE0
03C0E0
03C060
03C040
038040
078640
078400
071C00
07FC00
0F1800
0F1800
0E1800
1E18C0
1E0080
1E0180
1C0300
3E0F00
FFFF00
ENDCHAR

STARTCHAR Eacute
ENCODING 201
SWIDTH 741 0
DWIDTH 19 0
BBX 19 25 0 0
BITMAP
000200
000700
000F00
000C00
001000
000000
000000
0FFFE0
03C0E0
03C060
03C040
038040
078640
078400
071C00
07FC00
0F1800
0F1800
0E1800
1E18C0
1E0080
1E0180
1C0300
3E0F00
FFFF00
ENDCHAR

STARTCHAR Ecircumflex
ENCODING 202
SWIDTH 741 0
DWIDTH 19 0
BBX 19 25 0 0
BITMAP
000E00
001E00
003A00
006300
008100
000000
000000
0FFFE0
03C0E0
03C060
03C040
038040
078640
078400
071C00
07FC00
0F1800
0F1800
0E1800
1E18C0
1E0080
1E0180
1C0300
3E0F00
FFFF00
ENDCHAR

STARTCHAR Edieresis
ENCODING 203
SWIDTH 741 0
DWIDTH 19 0
BBX 19 24 0 0
BITMAP
007380
007380
007380
000000
000000
000000
0FFFE0
03E0E0
03C060
03C060
03C040
078640
078400
078C00
07FC00
0F1C00
0F0800
0F0800
0E18C0
1E0080
1E0180
1E0380
3E0F00
FFFF00
ENDCHAR

STARTCHAR Igrave
ENCODING 204
SWIDTH 444 0
DWIDTH 11 0
BBX 13 25 0 0
BITMAP
0300
0380
03C0
00C0
0020
0000
0000
0FF8
03C0
03C0
03C0
0380
0780
0780
0780
0700
0F00
0F00
0F00
0E00
1E00
1E00
1C00
3E00
FF80
ENDCHAR

STARTCHAR Iacute
ENCODING 205
SWIDTH 444 0
DWIDTH 11 0
BBX 13 25 0 0
BITMAP
0020
0070
00F0
01C0
0100
0000
0000
0FF8
03C0
03C0
03C0
0380
0780
0780
0780
0700
0F00
0F00
0F00
0E00
1E00
1E00
1C00
3E00
FF80
ENDCHAR

STARTCHAR Icircumflex
ENCODING 206
SWIDTH 444 0
DWIDTH 11 0
BBX 13 25 0 0
BITMAP
0070
00F0
01D8
0308
0408
0000
0000
0FF8
03C0
03C0
03C0
0380
0780
0780
0780
0700
0F00
0F00
0F00
0E00
1E00
1E00
1C00
3E00
FF80
ENDCHAR

STARTCHAR Idieresis
ENCODING 207
SWIDTH 444 0
DWIDTH 11 0
BBX 14 24 0 0
BITMAP
039C
039C
039C
0000
0000
0000
0FF8
03E0
03C0
03C0
03C0
0780
0780
0780
0700
0F00
0F00
0F00
1E00
1E00
1E00
1C00
3E00
FF80
ENDCHAR

STARTCHAR Gbreve
ENCODING 208
SWIDTH 815 0
DWIDTH 20 0
BBX 18 25 2 0
BITMAP
008200
008200
00CE00
00FC00
007800
000000
000000
01FC00
0787C0
0F0180
1E0180
3C0180
7C0080
780000
F80000
F80000
F03FC0
F00F80
F00F00
F00F00
F00F00
781E00
381A00
3C3600
0FC200
ENDCHAR

STARTCHAR Ntilde
ENCODING 209
SWIDTH 852 0
DWIDTH 21 0
BBX 23 24 0 0
BITMAP
000F20
001FC0
0013C0
000000
000000
000000
0FC0FE
01E038
01E010
01F030
037020
027820
027820
063C60
063C40
041E40
041EC0
0C0FC0
0C0F80
080780
180780
180700
7F0300
FE0300
ENDCHAR

STARTCHAR Ograve
ENCODING 210
SWIDTH 833 0
DWIDTH 21 0
BBX 19 24 2 0
BITMAP
003800
003C00
001C00
000600
000000
000000
00FE00
038780
0F03C0
1E01C0
3C01E0
3C01E0
7801E0
7801E0
F801E0
F003E0
F003C0
F003C0
F007C0
F00780
700F00
381E00
1C3C00
0FE000
ENDCHAR

STARTCHAR Oacute
ENCODING 211
SWIDTH 833 0
DWIDTH 21 0
BBX 19 24 2 0
BITMAP
000700
000F00
000E00
001800
000000
000000
00FE00
038780
0F03C0
1E01C0
3C01E0
3C01E0
7801E0
7801E0
F801E0
F003E0
F003C0
F003C0
F007C0
F00780
700F00
381E00
1C3C00
0FE000
ENDCHAR

STARTCHAR Ocircumflex
ENCODING 212
SWIDTH 833 0
DWIDTH 21 0
BBX 19 24 2 0
BITMAP
001E00
003E00
007300
00C100
000000
000000
00FE00
038780
0F03C0
1E01C0
3C01E0
3C01E0
7801E0
7801E0
F801E0
F003E0
F003C0
F003C0
F007C0
F00780
700F00
381E00
1C3C00
0FE000
ENDCHAR

STARTCHAR Otilde
ENCODING 213
SWIDTH 833 0
DWIDTH 21 0
BBX 19 24 2 0
BITMAP
003C80
007F00
004F00
000000
000000
000000
00FE00
038780
0F03C0
1E01C0
3C01E0
3C01E0
7801E0
7801E0
F801E0
F003E0
F003C0
F003C0
F007C0
F00780
700F00
381E00
1C3C00
0FE000
ENDCHAR

STARTCHAR Odieresis
ENCODING 214
SWIDTH 833 0
DWIDTH 21 0
BBX 19 24 2 0
BITMAP
007380
007380
007380
000000
000000
000000
00FE00
038780
0F03C0
1E01C0
3C01E0
3C01E0
7C01E0
7801E0
F801E0
F803E0
F003C0
F003C0
F007C0
F00780
700F00
381E00
1C3C00
0FE000
ENDCHAR

STARTCHAR multiply
ENCODING 215
SWIDTH 650 0
DWIDTH 16 0
BBX 13 13 3 2
BITMAP
4010
E038
7070
38E0
1DC0
0F80
0700
0F80
1DC0
38E0
7070
E038
4010
ENDCHAR

STARTCHAR Oslash
ENCODING 216
SWIDTH 833 0
DWIDTH 21 0
BBX 19 18 2 0
BITMAP
00FE60
0787C0
0F01C0
1E03C0
3C06E0
3C0DE0
7819E0
7831E0
F861E0
F8C3E0
F183C0
F103C0
F207C0
F40780
780F00
381E00
7C3C00
CFE000
ENDCHAR

STARTCHAR Ugrave
ENCODING 217
SWIDTH 833 0
DWIDTH 21 0
BBX 20 25 3 0
BITMAP
002000
007000
007800
001C00
000400
000000
000000
FFC7F0
1E01C0
1E0180
1C0180
3C0100
3C0100
3C0300
780300
780200
780200
700600
F00600
F00400
F00400
F00C00
781800
3C3000
1FC000
ENDCHAR

STARTCHAR Uacute
ENCODING 218
SWIDTH 833 0
DWIDTH 21 0
BBX 20 25 3 0
BITMAP
000400
000E00
001E00
001800
002000
000000
000000
FFC7F0
1E01C0
1E0180
1C0180
3C0100
3C0100
3C0300
780300
780200
780200
700600
F00600
F00400
F00400
F00C00
781800
3C3000
1FC000
ENDCHAR

STARTCHAR Ucircumflex
ENCODING 219
SWIDTH 833 0
DWIDTH 21 0
BBX 20 25 3 0
BITMAP
001C00
003C00
007600
00C600
010200
000000
000000
FFC7F0
1E01C0
1E0180
1C0180
3C0100
3C0100
3C0300
780300
780200
780200
700600
F00600
F00400
F00400
F00C00
781800
3C3000
1FC000
ENDCHAR

STARTCHAR Udieresis
ENCODING 220
SWIDTH 833 0
DWIDTH 21 0
BBX 20 24 3 0
BITMAP
00E700
00E700
00E700
000000
000000
000000
FFC7F0
1E01C0
1E0180
1C0180
3C0100
3C0100
3C0100
780300
780200
780200
700200
F00600
F00400
F00400
F00C00
781800
3C3000
1FC000
ENDCHAR

STARTCHAR Idotaccent
ENCODING 221
SWIDTH 444 0
DWIDTH 11 0
BBX 13 24 0 0
BITMAP
00E0
00E0
00E0
0000
0000
0000
0FF8
03C0
03C0
03C0
0780
0780
0780
0700
0F00
0F00
0F00
0E00
1E00
1E00
1E00
1C00
3C00
FF80
ENDCHAR

STARTCHAR Scedilla
ENCODING 222
SWIDTH 685 0
DWIDTH 17 0
BBX 17 23 1 -5
BITMAP
03F000
070F80
0E0700
1C0300
1C0300
1E0200
1F8200
0FE000
0FF800
03FC00
00FE00
203E00
600E00
600E00
600E00
701C00
DC3800
07E000
01C000
03C000
01C000
03C000
1F0000
ENDCHAR

STARTCHAR germandbls
ENCODING 223
SWIDTH 574 0
DWIDTH 14 0
BBX 18 24 -3 -6
BITMAP
003F00
007380
00E1C0
01C1C0
03C1C0
0383C0
038F80
078700
073800
070E00
0F0700
0E0700
0E0700
0E0700
1E0F00
1DCF00
1DDE00
1DBC00
3CF800
380000
780000
780000
700000
800000
ENDCHAR

STARTCHAR agrave
ENCODING 224
SWIDTH 667 0
DWIDTH 17 0
BBX 14 18 2 0
BITMAP
0380
03C0
01C0
0020
0000
0000
0F38
3CB8
78F0
70F0
F0F0
F0E0
E0E0
E0E4
E1E8
F3D8
7FF0
38C0
ENDCHAR

STARTCHAR aacute
ENCODING 225
SWIDTH 667 0
DWIDTH 17 0
BBX 14 18 2 0
BITMAP
0070
00F0
00E0
0180
0000
0000
0F38
3CB8
78F0
70F0
F0F0
F0E0
E0E0
E0E4
E1E8
F3D8
7FF0
38C0
ENDCHAR

STARTCHAR acircumflex
ENCODING 226
SWIDTH 667 0
DWIDTH 17 0
BBX 14 18 2 0
BITMAP
00E0
01E0
03B0
0C10
0000
0000
0F38
3CB8
78F0
70F0
F0F0
F0E0
E0E0
E0E4
E1E8
F3D8
7FF0
38C0
ENDCHAR

STARTCHAR atilde
ENCODING 227
SWIDTH 667 0
DWIDTH 17 0
BBX 14 18 2 0
BITMAP
03C8
07F8
04F0
0000
0000
0000
0F38
3CB8
78F0
70F0
F0F0
F0E0
E0E0
E0E4
E1E8
F3D8
7FF0
38C0
ENDCHAR

STARTCHAR adieresis
ENCODING 228
SWIDTH 667 0
DWIDTH 17 0
BBX 14 18 2 0
BITMAP
0738
0738
0738
0000
0000
0000
0FB8
3CF8
7870
7070
F070
F0F0
E0E0
E0E4
E1EC
F3C8
7EF0
38E0
ENDCHAR

STARTCHAR aring
ENCODING 229
SWIDTH 667 0
DWIDTH 17 0
BBX 14 18 2 0
BITMAP
01C0
0320
0220
0360
01C0
0000
0F78
3CB0
78F0
70F0
F0E0
E0E0
E0E0
E1CC
E1C8
E3D0
7DF0
38C0
ENDCHAR

STARTCHAR ae
ENCODING 230
SWIDTH 815 0
DWIDTH 20 0
BBX 19 12 1 0
BITMAP
071BC0
1FBCE0
3CF8E0
7870E0
7071C0
F07380
F0FE00
E0E000
E0E000
E17040
727980
3C3E00
ENDCHAR

STARTCHAR ccedilla
ENCODING 231
SWIDTH 537 0
DWIDTH 13 0
BBX 12 17 1 -5
BITMAP
07C0
1E20
3C70
78F0
7060
7000
F000
F000
F000
7060
78C0
3F00
0C00
1E00
0E00
1E00
7800
ENDCHAR

STARTCHAR egrave
ENCODING 232
SWIDTH 519 0
DWIDTH 13 0
BBX 11 18 1 0
BITMAP
0600
0700
0380
00C0
0000
0000
07C0
1CE0
38E0
78E0
71C0
F380
FE00
F000
F000
7040
7980
3F00
ENDCHAR

STARTCHAR eacute
ENCODING 233
SWIDTH 519 0
DWIDTH 13 0
BBX 11 18 1 0
BITMAP
00E0
01E0
01C0
0300
0000
0000
07C0
1CE0
38E0
78E0
71C0
F380
FE00
F000
F000
7040
7980
3F00
ENDCHAR

STARTCHAR ecircumflex
ENCODING 234
SWIDTH 519 0
DWIDTH 13 0
BBX 11 18 1 0
BITMAP
01C0
03C0
0740
0C40
1020
0000
07C0
1CE0
38E0
78E0
71C0
F380
FE00
F000
F000
7040
7980
3F00
ENDCHAR

STARTCHAR edieresis
ENCODING 235
SWIDTH 519 0
DWIDTH 13 0
BBX 12 17 0 0
BITMAP
0E70
0E70
0E70
0000
0000
07E0
1CF0
3870
78F0
78E0
F1C0
FF00
F000
F000
7020
78C0
3F00
ENDCHAR

STARTCHAR igrave
ENCODING 236
SWIDTH 389 0
DWIDTH 10 0
BBX 8 18 2 0
BITMAP
18
1C
1E
06
01
00
3C
F8
38
38
78
70
70
F2
E6
EC
F8
70
ENDCHAR

STARTCHAR iacute
ENCODING 237
SWIDTH 389 0
DWIDTH 10 0
BBX 9 18 2 0
BITMAP
0300
0780
0700
1C00
0800
0000
3C00
F800
3800
3800
7800
7000
7000
F200
E600
EC00
F800
7000
ENDCHAR

STARTCHAR icircumflex
ENCODING 238
SWIDTH 389 0
DWIDTH 10 0
BBX 9 18 2 0
BITMAP
0F00
1F00
3B00
6100
8080
0000
3C00
F800
3800
3800
7800
7000
7000
F200
E600
EC00
F800
7000
ENDCHAR

STARTCHAR idieresis
ENCODING 239
SWIDTH 389 0
DWIDTH 10 0
BBX 10 17 1 0
BITMAP
39C0
39C0
39C0
0000
0000
1C00
FC00
1C00
3800
3800
3800
7000
7100
7200
F400
7C00
7000
ENDCHAR

STARTCHAR gbreve
ENCODING 240
SWIDTH 611 0
DWIDTH 15 0
BBX 17 23 -1 -5
BITMAP
010200
018600
01CC00
00F800
007000
000380
01FF80
079D00
0F0E00
0E0E00
0E0E00
0E1E00
073C00
0FF000
300000
380000
3FF800
0FFC00
3CFC00
F01C00
E01C00
F03800
3FE000
ENDCHAR

STARTCHAR ntilde
ENCODING 241
SWIDTH 685 0
DWIDTH 17 0
BBX 15 17 1 0
BITMAP
01E4
03F8
0278
0000
0000
7C70
FDF8
3F38
3C38
3C78
3870
7870
7072
70E4
F0EC
E0F8
E070
ENDCHAR

STARTCHAR ograve
ENCODING 242
SWIDTH 574 0
DWIDTH 14 0
BBX 12 18 1 0
BITMAP
0300
0780
0380
00C0
0040
0000
0F80
3CE0
7870
7070
F070
F070
E0F0
E0F0
E0E0
E1C0
7380
1F00
ENDCHAR

STARTCHAR oacute
ENCODING 243
SWIDTH 574 0
DWIDTH 14 0
BBX 12 18 1 0
BITMAP
0060
00E0
01E0
0380
0200
0000
0F80
3CE0
7870
7070
F070
F070
E0F0
E0F0
E0E0
E1C0
7380
1F00
ENDCHAR

STARTCHAR ocircumflex
ENCODING 244
SWIDTH 574 0
DWIDTH 14 0
BBX 12 18 1 0
BITMAP
01C0
03C0
0760
0C20
1020
0000
0F80
3CE0
7870
7070
F070
F070
E0F0
E0F0
E0E0
E1C0
7380
1F00
ENDCHAR

STARTCHAR otilde
ENCODING 245
SWIDTH 574 0
DWIDTH 14 0
BBX 12 17 1 0
BITMAP
0790
0FF0
09E0
0000
0000
0F80
3CE0
7870
7070
F070
F070
E0F0
E0F0
E0E0
E1C0
7380
1F00
ENDCHAR

STARTCHAR odieresis
ENCODING 246
SWIDTH 574 0
DWIDTH 14 0
BBX 12 17 1 0
BITMAP
0E70
0E70
0E70
0000
0000
0F80
3CE0
7870
7070
F070
F070
E0F0
E0F0
E0E0
E1C0
7380
1F00
ENDCHAR

STARTCHAR divide
ENCODING 247
SWIDTH 650 0
DWIDTH 16 0
BBX 13 13 3 2
BITMAP
0700
0700
0700
0000
0000
0000
FFF8
FFF8
0000
0000
0200
0700
0200
ENDCHAR

STARTCHAR oslash
ENCODING 248
SWIDTH 574 0
DWIDTH 14 0
BBX 12 12 1 0
BITMAP
0FD0
1CE0
7870
78F0
F170
F270
E470
E8F0
F0E0
E1E0
73C0
9F00
ENDCHAR

STARTCHAR ugrave
ENCODING 249
SWIDTH 685 0
DWIDTH 17 0
BBX 14 18 2 0
BITMAP
0380
03C0
01C0
0060
0000
0000
FC38
3878
3870
7870
70F0
70E0
F0E0
E1E4
E2C8
E6D8
FDF0
70E0
ENDCHAR

STARTCHAR uacute
ENCODING 250
SWIDTH 685 0
DWIDTH 17 0
BBX 14 18 2 0
BITMAP
0070
00F0
00E0
0180
0000
0000
FC38
3878
3870
7870
70F0
70E0
F0E0
E1E4
E3C8
E6D8
FDF0
70E0
ENDCHAR

STARTCHAR ucircumflex
ENCODING 251
SWIDTH 685 0
DWIDTH 17 0
BBX 14 18 2 0
BITMAP
00E0
01E0
03A0
0C10
0000
0000
FC38
3878
3870
7870
70F0
70E0
F0E0
E1E4
E3C8
E6D8
FDF0
70E0
ENDCHAR

STARTCHAR udieresis
ENCODING 252
SWIDTH 685 0
DWIDTH 17 0
BBX 14 18 2 0
BITMAP
0738
0738
0738
0000
0000
0000
FC38
3878
3870
7870
70F0
70E0
F0E0
E1E4
E3C8
E6D8
FDF0
70E0
ENDCHAR

STARTCHAR dotlessi
ENCODING 253
SWIDTH 389 0
DWIDTH 10 0
BBX 7 12 2 0
BITMAP
3C
FC
38
38
78
70
70
F2
E6
E4
F8
70
ENDCHAR

STARTCHAR scedilla
ENCODING 254
SWIDTH 481 0
DWIDTH 12 0
BBX 12 17 0 -5
BITMAP
07C0
1C70
3870
3870
3E00
3FC0
0FE0
63E0
F0E0
E0E0
61C0
3F00
0E00
1E00
0E00
1E00
7800
ENDCHAR

STARTCHAR ydieresis
ENCODING 255
SWIDTH 519 0
DWIDTH 13 0
BBX 14 22 -1 -5
BITMAP
0738
0778
0738
0000
0000
0E1C
1E1C
371C
2708
0318
0398
03B0
03B0
01E0
01C0
01C0
0180
0100
C200
E400
F800
7000
ENDCHAR
ENDFONT
